<svg xmlns="http://www.w3.org/2000/svg" viewBox="0 0 500 500" width="100%" height="100%">
  <rect width="500" height="500" fill="#0B1319" rx="40"/>

  <circle cx="250" cy="210" r="130" stroke="#00E5FF" stroke-width="5" fill="none" opacity="0.9"/>
  <circle cx="250" cy="210" r="100" stroke="#00E5FF" stroke-width="2" stroke-dasharray="6 6" fill="none" opacity="0.6"/>
  <circle cx="250" cy="210" r="150" stroke="#00E5FF" stroke-width="1" fill="none" opacity="0.3"/>

  <path d="M 250 100 C 330 100, 350 180, 290 240 C 240 290, 200 260, 250 330 C 250 330, 190 270, 180 220 C 170 160, 200 100, 250 100 Z" fill="url(#leafGrad)"/>

  <circle cx="170" cy="170" r="6" fill="#00E5FF"/>
  <line x1="170" y1="170" x2="210" y2="150" stroke="#00E5FF" stroke-width="2" opacity="0.6"/>

  <circle cx="330" cy="160" r="5" fill="#39FF14"/>
  <line x1="330" y1="160" x2="290" y2="150" stroke="#39FF14" stroke-width="2" opacity="0.6"/>

  <circle cx="310" cy="280" r="7" fill="#00E5FF"/>
  <line x1="310" y1="280" x2="270" y2="240" stroke="#00E5FF" stroke-width="2" opacity="0.6"/>

  <circle cx="160" cy="260" r="4" fill="#39FF14"/>
  <line x1="160" y1="260" x2="200" y2="230" stroke="#39FF14" stroke-width="2" opacity="0.6"/>

  <defs>
    <linearGradient id="leafGrad" x1="0%" y1="0%" x2="100%" y2="100%">
      <stop offset="0%" stop-color="#39FF14" stop-opacity="0.95" />
      <stop offset="100%" stop-color="#028A0F" stop-opacity="0.8" />
    </linearGradient>
  </defs>

  <text x="250" y="400" font-family="'Segoe UI', Roboto, Helvetica, Arial, sans-serif" font-size="38" font-weight="800" fill="#FFFFFF" text-anchor="middle" letter-spacing="2">ECO-VISION</text>
  <text x="250" y="440" font-family="'Segoe UI', Roboto, Helvetica, Arial, sans-serif" font-size="20" font-weight="400" fill="#00E5FF" text-anchor="middle" letter-spacing="8">ANALYZER</text>
</svg>
